<svg width="1338" height="380" viewBox="0 0 1338 380" fill="none" xmlns="http://www.w3.org/2000/svg">
<rect width="1338" height="380" fill="#E1FFF4"/>
<rect x="215.648" y="27" width="230" height="230" rx="10" transform="rotate(45.0048 215.648 27)" fill="#1E3B31" fill-opacity="0.5"/>
<rect x="262.018" y="34" width="230" height="230" rx="10" transform="rotate(61.4424 262.018 34)" fill="#1E3B31" fill-opacity="0.5"/>
<rect x="301.264" y="51.3359" width="230" height="230" rx="10" transform="rotate(76.805 301.264 51.3359)" fill="#1E3B31" fill-opacity="0.5"/>
<rect x="331" y="75" width="230" height="230" rx="10" transform="rotate(90 331 75)" fill="url(#paint0_linear_304_3)"/>
<rect x="331" y="75" width="230" height="230" rx="10" transform="rotate(90 331 75)" fill="url(#paint1_linear_304_3)"/>
<path d="M206.78 220.13C207.807 220.13 208.717 220.527 209.51 221.32L216.93 229.37C212.823 234.457 207.76 238.353 201.74 241.06C195.767 243.767 188.58 245.12 180.18 245.12C172.667 245.12 165.9 243.837 159.88 241.27C153.907 238.703 148.797 235.133 144.55 230.56C140.303 225.987 137.037 220.527 134.75 214.18C132.51 207.833 131.39 200.903 131.39 193.39C131.39 185.783 132.603 178.83 135.03 172.53C137.457 166.183 140.863 160.723 145.25 156.15C149.683 151.577 154.957 148.03 161.07 145.51C167.183 142.943 173.95 141.66 181.37 141.66C188.743 141.66 195.277 142.873 200.97 145.3C206.71 147.727 211.587 150.9 215.6 154.82L209.3 163.57C208.927 164.13 208.437 164.62 207.83 165.04C207.27 165.46 206.477 165.67 205.45 165.67C204.75 165.67 204.027 165.483 203.28 165.11C202.533 164.69 201.717 164.2 200.83 163.64C199.943 163.033 198.917 162.38 197.75 161.68C196.583 160.98 195.23 160.35 193.69 159.79C192.15 159.183 190.353 158.693 188.3 158.32C186.293 157.9 183.96 157.69 181.3 157.69C176.773 157.69 172.62 158.507 168.84 160.14C165.107 161.727 161.887 164.06 159.18 167.14C156.473 170.173 154.373 173.907 152.88 178.34C151.387 182.727 150.64 187.743 150.64 193.39C150.64 199.083 151.433 204.147 153.02 208.58C154.653 213.013 156.847 216.747 159.6 219.78C162.353 222.813 165.597 225.147 169.33 226.78C173.063 228.367 177.077 229.16 181.37 229.16C183.937 229.16 186.247 229.02 188.3 228.74C190.4 228.46 192.313 228.017 194.04 227.41C195.813 226.803 197.47 226.033 199.01 225.1C200.597 224.12 202.16 222.93 203.7 221.53C204.167 221.11 204.657 220.783 205.17 220.55C205.683 220.27 206.22 220.13 206.78 220.13ZM262.729 193.67C266.182 193.67 269.192 193.25 271.759 192.41C274.325 191.523 276.449 190.287 278.129 188.7C279.855 187.067 281.139 185.107 281.979 182.82C282.819 180.487 283.239 177.897 283.239 175.05C283.239 172.343 282.819 169.893 281.979 167.7C281.139 165.507 279.879 163.64 278.199 162.1C276.519 160.56 274.395 159.393 271.829 158.6C269.262 157.76 266.229 157.34 262.729 157.34H248.659V193.67H262.729ZM262.729 142.78C269.495 142.78 275.352 143.573 280.299 145.16C285.245 146.747 289.329 148.963 292.549 151.81C295.769 154.657 298.149 158.063 299.689 162.03C301.275 165.997 302.069 170.337 302.069 175.05C302.069 179.95 301.252 184.453 299.619 188.56C297.985 192.62 295.535 196.12 292.269 199.06C289.002 202 284.895 204.287 279.949 205.92C275.049 207.553 269.309 208.37 262.729 208.37H248.659V244H229.829V142.78H262.729Z" fill="#E1FFF4"/>
<path d="M537.86 228.31C539.18 228.31 540.35 228.82 541.37 229.84L550.91 240.19C545.63 246.73 539.12 251.74 531.38 255.22C523.7 258.7 514.46 260.44 503.66 260.44C494 260.44 485.3 258.79 477.56 255.49C469.88 252.19 463.31 247.6 457.85 241.72C452.39 235.84 448.19 228.82 445.25 220.66C442.37 212.5 440.93 203.59 440.93 193.93C440.93 184.15 442.49 175.21 445.61 167.11C448.73 158.95 453.11 151.93 458.75 146.05C464.45 140.17 471.23 135.61 479.09 132.37C486.95 129.07 495.65 127.42 505.19 127.42C514.67 127.42 523.07 128.98 530.39 132.1C537.77 135.22 544.04 139.3 549.2 144.34L541.1 155.59C540.62 156.31 539.99 156.94 539.21 157.48C538.49 158.02 537.47 158.29 536.15 158.29C535.25 158.29 534.32 158.05 533.36 157.57C532.4 157.03 531.35 156.4 530.21 155.68C529.07 154.9 527.75 154.06 526.25 153.16C524.75 152.26 523.01 151.45 521.03 150.73C519.05 149.95 516.74 149.32 514.1 148.84C511.52 148.3 508.52 148.03 505.1 148.03C499.28 148.03 493.94 149.08 489.08 151.18C484.28 153.22 480.14 156.22 476.66 160.18C473.18 164.08 470.48 168.88 468.56 174.58C466.64 180.22 465.68 186.67 465.68 193.93C465.68 201.25 466.7 207.76 468.74 213.46C470.84 219.16 473.66 223.96 477.2 227.86C480.74 231.76 484.91 234.76 489.71 236.86C494.51 238.9 499.67 239.92 505.19 239.92C508.49 239.92 511.46 239.74 514.1 239.38C516.8 239.02 519.26 238.45 521.48 237.67C523.76 236.89 525.89 235.9 527.87 234.7C529.91 233.44 531.92 231.91 533.9 230.11C534.5 229.57 535.13 229.15 535.79 228.85C536.45 228.49 537.14 228.31 537.86 228.31ZM602.91 165.22C609.75 165.22 615.96 166.33 621.54 168.55C627.18 170.77 631.98 173.92 635.94 178C639.96 182.08 643.05 187.06 645.21 192.94C647.37 198.82 648.45 205.39 648.45 212.65C648.45 219.97 647.37 226.57 645.21 232.45C643.05 238.33 639.96 243.34 635.94 247.48C631.98 251.62 627.18 254.8 621.54 257.02C615.96 259.24 609.75 260.35 602.91 260.35C596.01 260.35 589.74 259.24 584.1 257.02C578.46 254.8 573.63 251.62 569.61 247.48C565.65 243.34 562.56 238.33 560.34 232.45C558.18 226.57 557.1 219.97 557.1 212.65C557.1 205.39 558.18 198.82 560.34 192.94C562.56 187.06 565.65 182.08 569.61 178C573.63 173.92 578.46 170.77 584.1 168.55C589.74 166.33 596.01 165.22 602.91 165.22ZM602.91 243.25C610.59 243.25 616.26 240.67 619.92 235.51C623.64 230.35 625.5 222.79 625.5 212.83C625.5 202.87 623.64 195.28 619.92 190.06C616.26 184.84 610.59 182.23 602.91 182.23C595.11 182.23 589.32 184.87 585.54 190.15C581.82 195.37 579.96 202.93 579.96 212.83C579.96 222.73 581.82 230.29 585.54 235.51C589.32 240.67 595.11 243.25 602.91 243.25ZM723.37 190.24C720.85 187.18 718.09 185.02 715.09 183.76C712.15 182.5 708.97 181.87 705.55 181.87C702.19 181.87 699.16 182.5 696.46 183.76C693.76 185.02 691.45 186.94 689.53 189.52C687.61 192.04 686.14 195.28 685.12 199.24C684.1 203.14 683.59 207.76 683.59 213.1C683.59 218.5 684.01 223.09 684.85 226.87C685.75 230.59 687.01 233.65 688.63 236.05C690.25 238.39 692.23 240.1 694.57 241.18C696.91 242.2 699.52 242.71 702.4 242.71C707.02 242.71 710.95 241.75 714.19 239.83C717.43 237.91 720.49 235.18 723.37 231.64V190.24ZM745.6 125.26V259H732.01C729.07 259 727.21 257.65 726.43 254.95L724.54 246.04C720.82 250.3 716.53 253.75 711.67 256.39C706.87 259.03 701.26 260.35 694.84 260.35C689.8 260.35 685.18 259.3 680.98 257.2C676.78 255.1 673.15 252.07 670.09 248.11C667.09 244.09 664.75 239.14 663.07 233.26C661.45 227.38 660.64 220.66 660.64 213.1C660.64 206.26 661.57 199.9 663.43 194.02C665.29 188.14 667.96 183.04 671.44 178.72C674.92 174.4 679.09 171.04 683.95 168.64C688.81 166.18 694.27 164.95 700.33 164.95C705.49 164.95 709.9 165.76 713.56 167.38C717.22 169 720.49 171.19 723.37 173.95V125.26H745.6ZM827.029 202.21C827.029 199.33 826.609 196.63 825.769 194.11C824.989 191.53 823.789 189.28 822.169 187.36C820.549 185.44 818.479 183.94 815.959 182.86C813.499 181.72 810.619 181.15 807.319 181.15C800.899 181.15 795.829 182.98 792.109 186.64C788.449 190.3 786.109 195.49 785.089 202.21H827.029ZM784.639 215.62C784.999 220.36 785.839 224.47 787.159 227.95C788.479 231.37 790.219 234.22 792.379 236.5C794.539 238.72 797.089 240.4 800.029 241.54C803.029 242.62 806.329 243.16 809.929 243.16C813.529 243.16 816.619 242.74 819.199 241.9C821.839 241.06 824.119 240.13 826.039 239.11C828.019 238.09 829.729 237.16 831.169 236.32C832.669 235.48 834.109 235.06 835.489 235.06C837.349 235.06 838.729 235.75 839.629 237.13L846.019 245.23C843.559 248.11 840.799 250.54 837.739 252.52C834.679 254.44 831.469 256 828.109 257.2C824.809 258.34 821.419 259.15 817.939 259.63C814.519 260.11 811.189 260.35 807.949 260.35C801.529 260.35 795.559 259.3 790.039 257.2C784.519 255.04 779.719 251.89 775.639 247.75C771.559 243.55 768.349 238.39 766.009 232.27C763.669 226.09 762.499 218.95 762.499 210.85C762.499 204.55 763.519 198.64 765.559 193.12C767.599 187.54 770.509 182.71 774.289 178.63C778.129 174.49 782.779 171.22 788.239 168.82C793.759 166.42 799.969 165.22 806.869 165.22C812.689 165.22 818.059 166.15 822.979 168.01C827.899 169.87 832.129 172.6 835.669 176.2C839.209 179.74 841.969 184.12 843.949 189.34C845.989 194.5 847.009 200.41 847.009 207.07C847.009 210.43 846.649 212.71 845.929 213.91C845.209 215.05 843.829 215.62 841.789 215.62H784.639Z" fill="black"/>
<path d="M909.501 194.29C913.941 194.29 917.811 193.75 921.111 192.67C924.411 191.53 927.141 189.94 929.301 187.9C931.521 185.8 933.171 183.28 934.251 180.34C935.331 177.34 935.871 174.01 935.871 170.35C935.871 166.87 935.331 163.72 934.251 160.9C933.171 158.08 931.551 155.68 929.391 153.7C927.231 151.72 924.501 150.22 921.201 149.2C917.901 148.12 914.001 147.58 909.501 147.58H891.411V194.29H909.501ZM909.501 128.86C918.201 128.86 925.731 129.88 932.091 131.92C938.451 133.96 943.701 136.81 947.841 140.47C951.981 144.13 955.041 148.51 957.021 153.61C959.061 158.71 960.081 164.29 960.081 170.35C960.081 176.65 959.031 182.44 956.931 187.72C954.831 192.94 951.681 197.44 947.481 201.22C943.281 205 938.001 207.94 931.641 210.04C925.341 212.14 917.961 213.19 909.501 213.19H891.411V259H867.201V128.86H909.501ZM1054.34 166.66V259H1040.75C1037.81 259 1035.95 257.65 1035.17 254.95L1033.64 247.57C1029.86 251.41 1025.69 254.53 1021.13 256.93C1016.57 259.27 1011.2 260.44 1005.02 260.44C999.985 260.44 995.515 259.6 991.615 257.92C987.775 256.18 984.535 253.75 981.895 250.63C979.255 247.51 977.245 243.82 975.865 239.56C974.545 235.24 973.885 230.5 973.885 225.34V166.66H996.115V225.34C996.115 230.98 997.405 235.36 999.985 238.48C1002.62 241.54 1006.55 243.07 1011.77 243.07C1015.61 243.07 1019.21 242.23 1022.57 240.55C1025.93 238.81 1029.11 236.44 1032.11 233.44V166.66H1054.34ZM1098.89 125.26V259H1076.66V125.26H1098.89ZM1177.37 184.66C1176.77 185.62 1176.14 186.31 1175.48 186.73C1174.82 187.09 1173.98 187.27 1172.96 187.27C1171.88 187.27 1170.71 186.97 1169.45 186.37C1168.25 185.77 1166.84 185.11 1165.22 184.39C1163.6 183.61 1161.74 182.92 1159.64 182.32C1157.6 181.72 1155.17 181.42 1152.35 181.42C1147.97 181.42 1144.52 182.35 1142 184.21C1139.54 186.07 1138.31 188.5 1138.31 191.5C1138.31 193.48 1138.94 195.16 1140.2 196.54C1141.52 197.86 1143.23 199.03 1145.33 200.05C1147.49 201.07 1149.92 202 1152.62 202.84C1155.32 203.62 1158.05 204.49 1160.81 205.45C1163.63 206.41 1166.39 207.52 1169.09 208.78C1171.79 209.98 1174.19 211.54 1176.29 213.46C1178.45 215.32 1180.16 217.57 1181.42 220.21C1182.74 222.85 1183.4 226.03 1183.4 229.75C1183.4 234.19 1182.59 238.3 1180.97 242.08C1179.41 245.8 1177.07 249.04 1173.95 251.8C1170.83 254.5 1166.96 256.63 1162.34 258.19C1157.78 259.69 1152.5 260.44 1146.5 260.44C1143.32 260.44 1140.2 260.14 1137.14 259.54C1134.14 259 1131.23 258.22 1128.41 257.2C1125.65 256.18 1123.07 254.98 1120.67 253.6C1118.33 252.22 1116.26 250.72 1114.46 249.1L1119.59 240.64C1120.25 239.62 1121.03 238.84 1121.93 238.3C1122.83 237.76 1123.97 237.49 1125.35 237.49C1126.73 237.49 1128.02 237.88 1129.22 238.66C1130.48 239.44 1131.92 240.28 1133.54 241.18C1135.16 242.08 1137.05 242.92 1139.21 243.7C1141.43 244.48 1144.22 244.87 1147.58 244.87C1150.22 244.87 1152.47 244.57 1154.33 243.97C1156.25 243.31 1157.81 242.47 1159.01 241.45C1160.27 240.43 1161.17 239.26 1161.71 237.94C1162.31 236.56 1162.61 235.15 1162.61 233.71C1162.61 231.55 1161.95 229.78 1160.63 228.4C1159.37 227.02 1157.66 225.82 1155.5 224.8C1153.4 223.78 1150.97 222.88 1148.21 222.1C1145.51 221.26 1142.72 220.36 1139.84 219.4C1137.02 218.44 1134.23 217.33 1131.47 216.07C1128.77 214.75 1126.34 213.1 1124.18 211.12C1122.08 209.14 1120.37 206.71 1119.05 203.83C1117.79 200.95 1117.16 197.47 1117.16 193.39C1117.16 189.61 1117.91 186.01 1119.41 182.59C1120.91 179.17 1123.1 176.2 1125.98 173.68C1128.92 171.1 1132.55 169.06 1136.87 167.56C1141.25 166 1146.29 165.22 1151.99 165.22C1158.35 165.22 1164.14 166.27 1169.36 168.37C1174.58 170.47 1178.93 173.23 1182.41 176.65L1177.37 184.66ZM1259.63 202.21C1259.63 199.33 1259.21 196.63 1258.37 194.11C1257.59 191.53 1256.39 189.28 1254.77 187.36C1253.15 185.44 1251.08 183.94 1248.56 182.86C1246.1 181.72 1243.22 181.15 1239.92 181.15C1233.5 181.15 1228.43 182.98 1224.71 186.64C1221.05 190.3 1218.71 195.49 1217.69 202.21H1259.63ZM1217.24 215.62C1217.6 220.36 1218.44 224.47 1219.76 227.95C1221.08 231.37 1222.82 234.22 1224.98 236.5C1227.14 238.72 1229.69 240.4 1232.63 241.54C1235.63 242.62 1238.93 243.16 1242.53 243.16C1246.13 243.16 1249.22 242.74 1251.8 241.9C1254.44 241.06 1256.72 240.13 1258.64 239.11C1260.62 238.09 1262.33 237.16 1263.77 236.32C1265.27 235.48 1266.71 235.06 1268.09 235.06C1269.95 235.06 1271.33 235.75 1272.23 237.13L1278.62 245.23C1276.16 248.11 1273.4 250.54 1270.34 252.52C1267.28 254.44 1264.07 256 1260.71 257.2C1257.41 258.34 1254.02 259.15 1250.54 259.63C1247.12 260.11 1243.79 260.35 1240.55 260.35C1234.13 260.35 1228.16 259.3 1222.64 257.2C1217.12 255.04 1212.32 251.89 1208.24 247.75C1204.16 243.55 1200.95 238.39 1198.61 232.27C1196.27 226.09 1195.1 218.95 1195.1 210.85C1195.1 204.55 1196.12 198.64 1198.16 193.12C1200.2 187.54 1203.11 182.71 1206.89 178.63C1210.73 174.49 1215.38 171.22 1220.84 168.82C1226.36 166.42 1232.57 165.22 1239.47 165.22C1245.29 165.22 1250.66 166.15 1255.58 168.01C1260.5 169.87 1264.73 172.6 1268.27 176.2C1271.81 179.74 1274.57 184.12 1276.55 189.34C1278.59 194.5 1279.61 200.41 1279.61 207.07C1279.61 210.43 1279.25 212.71 1278.53 213.91C1277.81 215.05 1276.43 215.62 1274.39 215.62H1217.24Z" fill="#0B6947"/>
<defs>
<linearGradient id="paint0_linear_304_3" x1="411.859" y1="74.0374" x2="505.567" y2="266.716" gradientUnits="userSpaceOnUse">
<stop stop-color="#0A6846"/>
<stop offset="1" stop-color="#21332D"/>
</linearGradient>
<linearGradient id="paint1_linear_304_3" x1="411.859" y1="74.0374" x2="505.567" y2="266.716" gradientUnits="userSpaceOnUse">
<stop stop-color="#0A6846"/>
<stop offset="1" stop-color="#21332D"/>
</linearGradient>
</defs>
</svg>
